<?xml version="1.0" encoding="iso-8859-1"?>
<!-- Uploaded to: SVG Repo, www.svgrepo.com, Generator: SVG Repo Mixer Tools -->
<svg fill="#6D8A91" height="800px" width="800px" version="1.1" id="Layer_1" xmlns="http://www.w3.org/2000/svg" xmlns:xlink="http://www.w3.org/1999/xlink" 
	 viewBox="0 0 512 512" xml:space="preserve">
<g>
	<g>
		<g>
			<path d="M416.278,34.758V7.928h-33.391v26.829h-62.33V7.928h-33.391v26.829h-62.33V7.928h-33.391v26.829h-62.33V7.928H95.722
				v26.829H0v469.316h512V34.758H416.278z M478.609,470.682H33.391v-294.89h445.217V470.682z M478.609,142.401H33.391V68.149h62.33
				V94.97h33.391V68.149h62.33V94.97h33.391V68.149h62.33V94.97h33.391V68.149h62.33V94.97h33.391V68.149h62.33V142.401z"/>
			<path d="M214.239,390.9c13.457,10.408,31.892,22.392,32.671,22.898l9.09,5.9l9.09-5.9c0.778-0.505,19.214-12.491,32.671-22.898
				c30.47-23.566,65.444-55.368,65.444-92.425c-0.001-37.767-30.726-68.491-68.491-68.491c-13.929,0-27.41,4.262-38.714,12.007
				c-11.303-7.746-24.785-12.007-38.714-12.007c-37.766,0-68.491,30.724-68.491,68.491
				C148.795,335.532,183.769,367.334,214.239,390.9z M217.287,263.376c10.006,0,19.57,4.301,26.237,11.799L256,289.207
				l12.477-14.032c6.667-7.497,16.23-11.799,26.237-11.799c19.354,0,35.1,15.745,35.1,35.1
				c-0.001,16.868-17.657,39.079-52.481,66.012c-6.719,5.197-15.077,11.009-21.333,15.248c-6.25-4.235-14.602-10.043-21.331-15.248
				c-34.824-26.933-52.481-49.143-52.481-66.012C182.187,279.121,197.932,263.376,217.287,263.376z"/>
		</g>
	</g>
</g>
</svg>