<?xml version="1.0" encoding="iso-8859-1"?>
<!-- Uploaded to: SVG Repo, www.svgrepo.com, Generator: SVG Repo Mixer Tools -->
<svg fill="#6D8A91" height="800px" width="800px" version="1.1" id="Layer_1" xmlns="http://www.w3.org/2000/svg" xmlns:xlink="http://www.w3.org/1999/xlink" 
	 viewBox="0 0 512 512" xml:space="preserve">
<g>
	<g>
		<path d="M512,424.526v-33.391h-36.656V244.05h-66.46V111.201h-66.461V0H169.577v111.201h-66.461V244.05h-66.46v147.084H0v33.391
			h239.304v54.083h-77.142V512h187.674v-33.391h-77.141v-54.083H512z M202.968,33.391h106.064v19.366
			c-4.33,1.774-7.572,3.989-10.154,5.752c-3.601,2.46-4.458,3.045-8.016,3.045c-3.558,0-4.414-0.584-8.015-3.044
			c-5.168-3.529-12.976-8.863-26.851-8.863c-13.874,0-21.681,5.334-26.848,8.863c-3.601,2.46-4.457,3.044-8.014,3.044
			c-3.557,0-4.413-0.584-8.014-3.044c-2.582-1.764-5.823-3.978-10.152-5.752V33.391z M202.967,91.195h0.001
			c4.561,2.085,10.416,3.75,18.166,3.75c13.874,0,21.682-5.334,26.85-8.864c3.6-2.46,4.456-3.044,8.012-3.044
			c3.558,0,4.415,0.584,8.016,3.045c5.168,3.529,12.976,8.863,26.85,8.863c7.752,0,13.608-1.666,18.17-3.752V111.2H202.967V91.195z
			 M136.505,144.592h238.988v30.29c-4.213,1.784-7.376,3.994-9.899,5.758c-3.479,2.433-4.203,2.94-7.457,2.94
			c-3.255,0-3.978-0.506-7.457-2.94c-5.106-3.572-12.823-8.969-26.595-8.969c-13.772,0-21.488,5.397-26.594,8.969
			c-3.478,2.433-4.202,2.94-7.454,2.94s-3.976-0.506-7.454-2.94c-5.107-3.572-12.823-8.969-26.595-8.969
			c-13.771,0-21.487,5.397-26.593,8.969c-3.478,2.433-4.202,2.94-7.454,2.94c-3.251,0-3.975-0.506-7.453-2.94
			c-5.106-3.572-12.822-8.969-26.594-8.969c-13.771,0-21.486,5.398-26.592,8.97c-3.477,2.433-4.2,2.938-7.451,2.938
			c-3.25,0-3.972-0.506-7.45-2.938c-2.522-1.764-5.684-3.972-9.896-5.758V144.592z M375.495,213.466v30.584H136.507v-30.581
			c4.418,1.968,10.018,3.502,17.346,3.502c13.772,0,21.487-5.398,26.593-8.97c3.477-2.433,4.2-2.938,7.45-2.938
			c3.252,0,3.976,0.506,7.454,2.94c5.106,3.572,12.822,8.969,26.593,8.969c13.772,0,21.488-5.397,26.594-8.969
			c3.478-2.433,4.202-2.94,7.453-2.94c3.253,0,3.977,0.506,7.455,2.94c5.107,3.571,12.822,8.969,26.594,8.969
			s21.488-5.397,26.594-8.969c3.478-2.433,4.202-2.94,7.454-2.94c3.255,0,3.978,0.506,7.457,2.94
			c5.106,3.572,12.823,8.969,26.595,8.969C365.471,216.971,371.075,215.436,375.495,213.466z M70.054,277.439h371.899v0.002v37.613
			c-4.369-1.929-9.888-3.417-17.076-3.417c-13.738,0-21.423,5.419-26.507,9.006c-3.408,2.403-4.116,2.903-7.265,2.903
			s-3.858-0.5-7.265-2.903c-5.086-3.586-12.771-9.006-26.508-9.006s-21.422,5.419-26.506,9.006c-3.406,2.402-4.114,2.902-7.26,2.902
			c-3.148,0-3.857-0.5-7.264-2.903c-5.084-3.586-12.77-9.006-26.506-9.006c-13.738,0-21.423,5.419-26.507,9.006
			c-3.408,2.403-4.116,2.903-7.264,2.903c-3.15,0-3.859-0.5-7.266-2.903c-5.086-3.586-12.772-9.005-26.509-9.005
			s-21.424,5.419-26.508,9.005c-3.409,2.403-4.117,2.903-7.267,2.903s-3.86-0.5-7.268-2.903c-5.085-3.586-12.772-9.005-26.509-9.005
			s-21.424,5.419-26.509,9.005c-3.408,2.403-4.116,2.903-7.266,2.903c-3.152,0-3.862-0.5-7.27-2.904
			c-5.086-3.586-12.772-9.005-26.51-9.005c-7.194,0-12.715,1.489-17.086,3.419V277.439z M70.047,391.135v-37.442
			c4.174-1.789,7.313-3.995,9.815-5.759c3.409-2.404,4.118-2.904,7.27-2.904c3.151,0,3.861,0.5,7.269,2.904
			c5.087,3.585,12.773,9.005,26.512,9.005s21.424-5.419,26.508-9.005c3.409-2.403,4.117-2.903,7.267-2.903
			c3.15,0,3.86,0.5,7.268,2.903c5.086,3.586,12.771,9.005,26.509,9.005c13.738,0,21.424-5.419,26.508-9.005
			c3.409-2.403,4.117-2.903,7.267-2.903s3.859,0.5,7.267,2.903c5.084,3.586,12.771,9.005,26.508,9.005
			c13.737,0,21.423-5.419,26.507-9.006c3.408-2.403,4.116-2.903,7.264-2.903c3.147,0,3.857,0.5,7.261,2.902
			c5.086,3.586,12.771,9.006,26.508,9.006s21.422-5.419,26.506-9.006c3.406-2.402,4.114-2.902,7.26-2.902
			c3.149,0,3.858,0.5,7.265,2.903c5.086,3.586,12.771,9.006,26.508,9.006c13.737,0,21.424-5.419,26.508-9.006
			c3.407-2.403,4.116-2.903,7.264-2.903c3.148,0,3.857,0.5,7.264,2.903c2.502,1.764,5.639,3.971,9.812,5.759v37.443H70.047z"/>
	</g>
</g>
</svg>