<?xml version="1.0" encoding="UTF-8" standalone="no"?>
<!DOCTYPE svg PUBLIC "-//W3C//DTD SVG 1.1//EN" "http://www.w3.org/Graphics/SVG/1.1/DTD/svg11.dtd">
<svg width="100%" height="100%" viewBox="0 0 44 44" version="1.1" xmlns="http://www.w3.org/2000/svg" xmlns:xlink="http://www.w3.org/1999/xlink" xml:space="preserve" xmlns:serif="http://www.serif.com/" style="fill-rule:evenodd;clip-rule:evenodd;stroke-linejoin:round;stroke-miterlimit:2;">
    <g transform="matrix(0.537608,0,0,0.537608,-6.02659,-84.4106)">
        <path d="M91.375,195.813C91.011,196.068 90.468,196.323 89.76,196.444C89.054,196.576 88.189,196.573 87.258,196.67C86.601,196.735 85.876,196.904 85.285,197.244C85.271,197.125 85.246,197.008 85.228,196.89C85.526,196.722 85.84,196.595 86.145,196.509C86.705,196.35 87.236,196.291 87.716,196.254C88.676,196.189 89.438,196.196 90.031,196.095C90.621,196.004 91.085,195.828 91.418,195.655C91.715,195.499 91.94,195.381 91.94,195.381C91.94,195.381 91.739,195.562 91.375,195.813ZM80.94,187.35C80.826,187.015 80.74,186.762 80.74,186.762C80.74,186.762 81.342,187.708 81.843,189.154C82.01,189.628 82.147,190.167 82.269,190.73C82.108,190.556 81.946,190.384 81.776,190.22C81.667,189.744 81.553,189.297 81.44,188.906C81.249,188.255 81.068,187.724 80.94,187.35ZM83.372,190.809C83.47,190.625 83.586,190.414 83.709,190.203C83.79,190.315 83.866,190.409 83.939,190.491C83.889,190.544 83.851,190.588 83.803,190.64C83.738,190.606 83.671,190.57 83.607,190.525C83.587,190.653 83.57,190.79 83.55,190.923C83.522,190.956 83.483,190.997 83.456,191.028C83.186,191.335 83.018,191.547 83.018,191.547C83.018,191.547 83.154,191.238 83.372,190.809ZM84.784,188.613C84.794,188.177 84.816,187.929 84.816,187.929C84.816,187.929 85.007,189.138 85.094,190.829C85.175,192.249 85.118,193.989 85.005,195.766C84.909,195.392 84.801,195.022 84.668,194.66C84.72,192.964 84.725,191.564 84.747,190.434C84.759,189.834 84.773,189.159 84.784,188.613ZM60.065,212.249C60.42,213.638 60.423,215.156 60.261,216.362C60.109,217.584 59.966,218.451 59.965,219.295C59.953,220.142 60.027,220.936 60.152,221.66C60.4,223.113 60.855,224.229 61.285,224.97C61.717,225.707 62.071,226.089 62.071,226.089C62.071,226.089 61.945,225.995 61.731,225.805C61.518,225.612 61.22,225.318 60.905,224.902C60.272,224.078 59.603,222.725 59.293,221.018C59.134,220.171 59.07,219.244 59.132,218.282C59.189,217.317 59.406,216.233 59.454,215.035C59.548,212.878 58.889,210.662 57.674,209.001C57.753,208.754 57.819,208.503 57.887,208.252C57.993,208.313 58.102,208.374 58.212,208.435C59.109,209.572 59.731,210.897 60.065,212.249ZM56.833,216.33C56.438,216.69 55.961,217.126 55.413,217.625C55.312,217.718 55.205,217.816 55.102,217.912C55.02,217.528 54.908,217.18 54.769,216.876C55.542,216.488 56.248,216.124 56.797,215.82C57.604,215.376 58.087,214.985 58.087,214.985C58.087,214.985 57.643,215.594 56.833,216.33ZM52.715,221.201C51.87,222.796 50.945,223.915 50.278,224.861C49.59,225.799 49.122,226.553 48.833,227.143C48.539,227.724 48.4,228.077 48.4,228.077C48.4,228.077 48.473,227.615 48.725,226.876C48.969,226.133 49.468,225.165 50.188,224.052C50.889,222.935 51.831,221.667 52.505,220.099C52.834,219.318 53.074,218.469 53.142,217.604C53.164,217.321 53.155,217.039 53.133,216.76C53.256,216.624 53.384,216.49 53.503,216.351C53.55,216.296 53.593,216.238 53.64,216.182C53.675,216.36 53.707,216.54 53.725,216.72C53.686,217 53.66,217.253 53.655,217.427C53.687,217.412 53.716,217.396 53.748,217.382C53.744,217.738 53.722,218.092 53.666,218.428C53.494,219.468 53.131,220.394 52.715,221.201ZM48.415,220.679C48.767,220.47 49.109,220.25 49.443,220.02C49.834,220.02 50.199,219.994 50.512,219.951C51.163,219.868 51.594,219.716 51.594,219.716C51.594,219.716 51.135,220.035 50.414,220.289C49.86,220.487 49.156,220.651 48.415,220.679ZM43.903,218.79C38.43,220.474 31.832,217.474 27.67,212.639C25.601,210.222 24.221,207.204 24.412,204.222C24.579,201.241 26.31,198.246 28.827,196.227C31.101,194.338 34.212,193.448 37.502,192.479C37.869,192.978 38.242,193.466 38.616,193.939C39.265,194.761 39.936,195.526 40.616,196.262C39.282,197.268 38.214,198.51 37.527,199.851C36.551,201.725 36.28,203.822 36.77,205.579C37.225,207.33 38.391,208.755 39.811,209.309C41.244,209.846 42.647,209.538 43.584,208.935C44.541,208.325 45.002,207.375 45.024,206.623C45.06,205.863 44.782,205.314 44.527,205.039C44.269,204.759 44.082,204.69 44.082,204.69C44.082,204.69 44.263,204.777 44.49,205.07C44.715,205.355 44.931,205.903 44.84,206.606C44.763,207.3 44.274,208.119 43.382,208.595C42.51,209.074 41.224,209.23 40.076,208.694C38.933,208.149 38.024,206.881 37.738,205.351C37.424,203.826 37.774,202.07 38.71,200.514C39.428,199.338 40.48,198.269 41.763,197.458C42.361,198.057 42.962,198.637 43.564,199.181C45.241,200.713 46.946,202.014 48.603,203.124C50.954,204.709 53.196,205.915 55.233,206.842C55.212,206.917 55.198,206.992 55.176,207.067C54.445,209.6 52.965,212.056 51.036,214.172C49.103,216.264 46.657,218.009 43.903,218.79ZM21.492,189.418C20.165,188.125 18.904,187.063 17.824,186.132C16.742,185.211 15.853,184.437 15.249,183.879C14.644,183.322 14.325,182.982 14.325,182.982C14.325,182.982 14.821,183.319 15.604,183.851C16.407,184.397 17.54,185.159 18.801,186.108C21.105,187.837 23.743,190.22 25.682,193.293C25.507,193.445 25.331,193.596 25.162,193.755C23.992,191.97 22.7,190.609 21.492,189.418ZM27.666,184.946C27.687,183.984 27.712,183.2 27.74,182.65C27.764,182.102 27.8,181.791 27.8,181.791C27.8,181.791 27.993,183.316 28.1,185.445C28.197,187.199 28.167,189.342 28.119,191.531C27.96,191.625 27.799,191.713 27.642,191.813C27.638,188.969 27.627,186.698 27.666,184.946ZM34.759,174.514C35.027,173.226 35.536,171.956 36.261,170.89C37.693,168.689 40.148,167.779 42.385,168.943C43.505,169.487 44.557,170.442 45.361,171.598C46.173,172.737 46.736,174.087 47.06,175.538C47.712,178.406 47.266,181.594 45.453,183.727C43.708,185.85 40.728,187.108 37.478,188.064C37.15,187.442 36.836,186.807 36.549,186.151C35.505,183.786 34.724,181.201 34.535,178.514C34.444,177.188 34.491,175.775 34.759,174.514ZM49.345,196.079C51.478,196.553 53.555,197.941 54.69,199.946C55.674,201.66 55.868,203.815 55.438,205.983C53.555,204.95 51.511,203.655 49.397,202.025C47.861,200.847 46.294,199.489 44.769,197.921C44.346,197.491 43.925,197.043 43.506,196.584C45.287,195.888 47.354,195.634 49.345,196.079ZM51.113,171.287C51.188,170.16 51.182,169.237 51.214,168.58C51.209,167.933 51.24,167.555 51.24,167.555C51.24,167.555 51.31,168.011 51.416,168.777C51.518,169.545 51.603,170.632 51.603,171.897C51.6,173.163 51.502,174.609 51.262,176.114C51.24,176.247 51.205,176.386 51.181,176.52C51.104,175.885 51.001,175.254 50.847,174.641C50.841,174.618 50.832,174.595 50.826,174.572C50.974,173.348 51.054,172.242 51.113,171.287ZM53.236,179.409C53.117,179.809 52.99,180.236 52.99,180.236C52.99,180.236 52.962,179.968 52.97,179.653C53.059,179.577 53.147,179.497 53.236,179.409ZM54.139,180.31C55.044,179.927 55.75,179.434 56.367,178.962C56.974,178.49 57.465,178.059 57.813,177.763C58.132,177.499 58.368,177.303 58.368,177.303C58.368,177.303 58.137,177.574 57.807,177.962C57.448,178.368 56.938,178.934 56.274,179.493C55.054,180.527 53.122,181.505 51.002,181.172C51.027,181.049 51.061,180.927 51.083,180.804C52.282,180.964 53.287,180.657 54.139,180.31ZM51.128,180.6C51.195,180.585 51.266,180.564 51.336,180.545C51.255,180.593 51.188,180.624 51.114,180.663C51.118,180.642 51.125,180.621 51.128,180.6ZM92.009,194.641C91.394,194.957 90.574,195.244 89.986,195.149C89.834,195.417 89.669,195.705 89.669,195.705C89.669,195.705 89.694,195.396 89.757,195.119C89.359,195.091 88.789,195.02 88.204,195.038C87.839,195.05 87.46,195.096 87.096,195.183C86.744,195.542 86.509,196.03 86.509,196.03C86.509,196.03 86.504,195.971 86.501,195.892C86.876,195.476 87.243,194.852 87.522,193.888C87.658,193.405 87.704,192.613 87.682,192.352C86.632,192.887 85.744,193.682 85.744,193.682C85.744,193.682 85.95,193.373 86.28,192.975C86.611,192.577 87.07,192.078 87.613,191.74C87.46,190.745 87.181,189.7 86.729,188.903C86.125,189.491 85.57,190.294 85.57,190.294C85.57,190.294 85.81,189.355 86.467,188.465C86.007,187.704 85.474,187.091 85.054,186.685C84.632,186.279 84.34,186.062 84.34,186.062C84.34,186.062 84.262,186.637 84.161,187.383C84.107,187.763 84.035,188.197 83.955,188.655C83.613,188.011 83.189,187.416 82.709,186.992C82.386,187.703 82.121,188.561 82.121,188.561C82.121,188.561 82.075,187.679 82.334,186.682C81.684,186.146 80.992,185.812 80.486,185.626C79.977,185.44 79.646,185.388 79.646,185.388C79.646,185.388 79.818,185.858 80,186.543C80.188,187.226 80.346,188.123 80.444,188.986C80.803,189.236 81.101,189.357 81.101,189.357C81.101,189.357 80.948,189.367 80.756,189.348C79.479,188.372 78.059,187.67 76.611,187.235C73.519,186.33 70.326,186.486 67.568,187.601C66.193,188.161 64.924,188.986 63.922,190.053C62.91,191.119 62.228,192.4 61.853,193.658C61.097,196.179 61.383,198.705 62.323,200.67C63.239,202.65 64.901,204.058 66.62,204.479C68.367,204.866 69.816,204.333 70.76,203.709C71.717,203.053 72.182,202.257 72.357,201.707C72.544,201.155 72.506,200.846 72.528,200.851C72.507,200.843 72.473,201.154 72.189,201.63C71.921,202.107 71.354,202.722 70.435,203.124C69.532,203.512 68.229,203.686 67.031,203.186C65.849,202.666 64.787,201.461 64.312,199.869C63.811,198.298 63.869,196.372 64.614,194.64C65.339,192.902 66.803,191.622 68.82,190.995C70.81,190.362 73.205,190.399 75.363,191.143C77.53,191.898 79.392,193.373 80.372,195.468C80.867,196.5 81.128,197.613 81.125,198.678C81.128,199.727 80.844,200.795 80.358,201.823C79.371,203.879 77.688,205.773 75.931,207.11C74.146,208.469 72.163,209.282 70.209,209.481C68.23,209.686 66.236,209.363 64.42,208.967C61.965,208.426 59.866,207.762 58.152,207.133C58.731,204.25 58.453,201.096 56.867,198.631C55.177,195.993 52.458,194.433 49.755,193.975C47.009,193.549 44.429,194.085 42.296,195.196C41.62,194.389 40.958,193.544 40.325,192.645C40.128,192.366 39.936,192.076 39.741,191.789C41.083,191.345 42.443,190.824 43.754,190.149C45.536,189.237 47.286,188.005 48.633,186.32C49.704,185.007 50.421,183.467 50.841,181.898C50.927,182.075 51.038,182.26 51.223,182.454C51.718,182.982 52.804,183.579 54.48,183.368C55.122,183.301 56.048,182.905 56.318,182.718C55.757,182.395 55.161,182.122 54.734,181.906C54.291,181.678 54.022,181.54 54.022,181.54C54.022,181.54 54.361,181.616 54.97,181.75C55.528,181.877 56.276,182.007 56.942,182.263C57.912,181.446 58.617,180.435 58.95,179.496C58.505,179.466 58.02,179.494 57.65,179.51C57.27,179.532 57.024,179.545 57.024,179.545C57.024,179.545 57.952,179.108 59.116,178.972C59.396,178.065 59.479,177.229 59.509,176.621C59.538,176.014 59.519,175.629 59.519,175.629C59.519,175.629 59.005,175.965 58.337,176.403C57.639,176.869 56.717,177.476 55.85,177.937C55.747,178.42 55.75,178.783 55.75,178.783C55.75,178.783 55.582,178.444 55.537,178.089C55.231,178.242 54.951,178.38 54.722,178.494C54.424,178.628 54.206,178.726 54.022,178.809C53.846,178.893 53.702,178.983 53.551,179.071C54.001,178.545 54.443,177.847 54.829,176.912C55.126,176.176 55.335,174.934 55.339,174.52C54.494,174.86 53.732,175.32 53.15,175.664C52.567,176.011 52.205,176.264 52.205,176.264C52.205,176.264 52.561,175.837 53.133,175.281C53.698,174.726 54.447,174.016 55.316,173.545C55.209,171.959 54.841,170.284 54.156,169.027C53.683,169.477 53.257,170.014 52.922,170.423C52.581,170.834 52.362,171.125 52.362,171.125C52.362,171.125 52.788,169.727 53.748,168.34C53.038,167.152 52.183,166.233 51.504,165.655C51.186,165.369 50.84,165.086 50.569,164.998C50.298,164.902 50.157,164.946 50.157,164.946C50.157,164.946 50.311,165.111 50.321,165.416C50.338,165.696 50.264,166.198 50.221,166.786C50.104,167.957 49.855,169.434 49.518,170.854C49.94,171.452 50.338,171.808 50.338,171.808C50.338,171.808 50.046,171.728 49.715,171.557C49.34,170.795 48.91,170.06 48.4,169.38C47.242,167.83 45.753,166.496 43.901,165.659C42.073,164.805 39.775,164.633 37.853,165.393C35.893,166.112 34.458,167.574 33.505,169.09C31.575,172.161 31.253,175.725 31.617,178.783C31.975,181.9 32.994,184.731 34.251,187.24C34.512,187.764 34.792,188.267 35.075,188.764C33.958,189.087 32.812,189.434 31.646,189.864C31.396,189.956 31.141,190.067 30.887,190.169C30.997,189.886 31.1,189.577 31.192,189.228C31.347,188.627 31.389,187.649 31.359,187.327C30.047,188 28.955,189.021 28.955,189.021C28.955,189.021 29.204,188.628 29.611,188.123C30.018,187.621 30.586,186.994 31.265,186.571C31.064,185.344 30.724,184.05 30.174,183.054C29.403,183.772 28.7,184.776 28.7,184.776C28.7,184.776 29.007,183.598 29.855,182.505C29.299,181.552 28.656,180.768 28.15,180.242C27.64,179.714 27.285,179.426 27.285,179.426C27.285,179.426 27.161,180.142 26.999,181.078C26.79,182.181 26.532,183.54 26.331,184.599C26.692,185.128 27.048,185.419 27.048,185.419C27.048,185.419 26.604,185.32 26.234,185.053C26.163,185.493 26.097,185.962 26.047,186.423C25.493,185.585 24.529,184.603 24.15,184.321C23.881,185.404 23.772,186.517 23.692,187.347C23.615,188.178 23.585,188.736 23.585,188.736C23.585,188.736 23.441,188.053 23.295,187.08C23.158,186.106 22.996,184.832 23.161,183.63C21.497,182.582 19.662,181.767 18.014,181.468C18.051,182.246 18.214,183.077 18.349,183.711C18.487,184.343 18.606,184.784 18.606,184.784C18.606,184.784 17.523,183.318 17.092,181.322C15.501,181.064 14.034,181.041 12.963,181.063C11.891,181.087 11.21,181.154 11.21,181.154C11.21,181.154 11.787,181.983 12.725,183.166C13.66,184.35 14.937,185.887 16.168,187.347C17.115,187.419 17.771,187.29 17.771,187.29C17.771,187.29 17.24,187.704 16.595,187.879C17.404,188.807 18.268,189.781 19.008,190.507C19.488,190.968 19.95,191.35 20.409,191.678C21.31,191.634 22.365,191.454 22.365,191.454C22.365,191.454 21.767,191.886 21.075,192.127C22.473,192.981 23.91,193.592 24.896,193.998C22.223,196.622 20.388,200.142 20.18,203.985C20.075,206.178 20.514,208.335 21.329,210.243C22.134,212.16 23.27,213.85 24.566,215.321C27.175,218.256 30.359,220.441 33.889,221.79C35.655,222.455 37.521,222.868 39.408,222.972C41.293,223.057 43.209,222.833 44.96,222.25C45.855,221.962 46.705,221.602 47.513,221.185C46.986,222.381 46.413,223.822 46.348,225.29C47.775,224.778 49.096,224.305 49.096,224.305C49.096,224.305 48.804,224.552 48.317,224.894C47.83,225.233 47.152,225.721 46.36,226.206C46.407,227.798 47.011,229.198 47.655,229.961C47.966,230.352 48.285,230.596 48.496,230.748C48.715,230.88 48.844,230.957 48.844,230.957C48.844,230.957 48.829,230.741 48.856,230.39C48.879,230.04 48.966,229.56 49.174,229.059C49.572,228.036 50.439,227.01 51.442,226.107C51.38,225.389 51.243,224.836 51.243,224.836C51.243,224.836 51.618,225.255 51.826,225.76C52.491,225.1 53.352,224.208 54.002,223.178C54.181,222.894 54.34,222.591 54.487,222.282C55.091,223.85 56,225.257 57.173,226.268C57.435,225.3 57.711,224.278 57.984,223.54C58.249,222.799 58.465,222.315 58.465,222.315C58.465,222.315 58.435,222.776 58.375,223.694C58.319,224.543 58.279,225.727 58.309,227.107C59.336,227.786 60.487,228.206 61.539,228.312C62.581,228.418 63.48,228.254 64.156,227.991C64.836,227.735 65.288,227.383 65.557,227.131C65.828,226.876 65.936,226.709 65.936,226.709C65.936,226.709 65.633,226.687 65.179,226.543C64.728,226.402 64.141,226.098 63.65,225.606C62.596,224.604 62.396,223.063 62.467,221.514C61.738,221.105 61.095,220.777 61.095,220.777C61.095,220.777 61.859,220.799 62.526,220.949C62.561,220.447 62.629,219.935 62.713,219.46C62.797,218.954 62.885,218.62 62.969,218.039C63.071,217.307 63.193,216.261 63.116,215.104C62.368,213.911 61.195,213.243 61.195,213.243C61.195,213.243 62.051,213.158 62.874,213.547C62.413,211.72 61.486,210.459 60.595,209.659C61.574,210.123 62.639,210.585 63.811,211.022C65.651,211.695 67.797,212.374 70.33,212.409C72.878,212.445 75.611,211.619 77.978,210.092C79.173,209.337 80.289,208.414 81.307,207.356C82.32,206.302 83.27,205.098 84.024,203.664C84.776,202.244 85.321,200.558 85.362,198.758C85.369,198.53 85.346,198.304 85.338,198.077C85.431,198.127 85.516,198.174 85.62,198.228C86.032,198.437 86.449,198.663 87.358,198.81C87.705,198.869 88.349,198.865 88.575,198.836C88.326,198.378 88.011,197.976 87.763,197.686C87.515,197.398 87.319,197.226 87.319,197.226C87.319,197.226 87.606,197.367 87.967,197.633C88.324,197.899 88.778,198.277 89.12,198.742C89.577,198.644 90.09,198.501 90.586,198.281C91.085,198.049 91.565,197.724 91.891,197.349C91.51,197.234 91.083,197.107 90.785,196.994C90.485,196.886 90.287,196.788 90.287,196.788C90.287,196.788 91.149,196.862 92.217,196.921C92.735,196.164 92.883,195.439 92.969,194.931C93.048,194.419 93.054,194.096 93.054,194.096C93.054,194.096 92.599,194.333 92.009,194.641Z" style="fill:#6D8A91;fill-rule:nonzero;"/>
    </g>
</svg>
