<?xml version="1.0" encoding="iso-8859-1"?>
<!-- Uploaded to: SVG Repo, www.svgrepo.com, Generator: SVG Repo Mixer Tools -->
<svg fill="#000000" height="800px" width="800px" version="1.1" id="Layer_1" xmlns="http://www.w3.org/2000/svg" xmlns:xlink="http://www.w3.org/1999/xlink" 
	 viewBox="0 0 512 512" xml:space="preserve">
<g>
	<g>
		<path d="M468.764,225.018c4.205-14.089,6.276-29.031,6.276-45.261c0-37.118-13.683-71.383-38.53-96.483
			c-25.564-25.826-61.42-40.048-100.962-40.048c-38.038,0-73.745,17.769-98.027,47.659c-24.282-29.891-59.989-47.659-98.027-47.659
			c-39.541,0-75.398,14.222-100.963,40.048C13.684,108.374,0,142.64,0,179.757c0,74.828,43.733,119.416,129.861,180.266
			c56.22,39.722,85.796,73.068,93.534,85.078l14.081,22.5l14.127-22.427c0.14-0.218,13.442-20.516,50.403-51.866
			c3.494,2.578,7.115,5.191,10.898,7.865c35.263,24.916,47.763,42.677,48.656,43.985l13.927,23.615l14.253-23.604
			c0.831-1.221,13.303-19.012,48.663-43.996C487.215,366.686,512,341.144,512,297.25C512,265.121,494.939,238.454,468.764,225.018z
			 M237.523,409.306c-14.67-16.699-42.095-43.841-88.395-76.553c-45.946-32.462-72.831-55.71-89.894-77.736
			c-17.873-23.073-25.844-46.284-25.844-75.26c0-28.262,10.253-54.185,28.871-72.992c19.525-19.723,46.231-30.148,77.232-30.148
			c34.331,0,66.236,20.01,83.267,52.222l14.76,27.916l14.76-27.916c17.031-32.211,48.937-52.222,83.268-52.222
			c31.002,0,57.707,10.425,77.231,30.148c18.617,18.807,28.87,44.73,28.87,72.992c0,13.115-1.661,25.064-5.035,36.206
			c-2.578-0.216-5.19-0.342-7.845-0.342c-20.007,0-38.924,8.121-53.116,22.109c-14.191-13.989-33.109-22.109-53.116-22.109
			c-47.451,0-83.233,35.092-83.233,81.627c0,30.785,12.209,52.542,36.331,74.69C258.165,387.114,245.804,399.877,237.523,409.306z
			 M419.134,373.902c-20.596,14.552-34.492,27.114-43.481,36.414c-8.989-9.299-22.885-21.862-43.481-36.414
			c-46.137-32.595-59.477-49.788-59.477-76.652c0-28.401,20.497-48.236,49.842-48.236c15.76,0,30.456,9.281,38.355,24.222
			l14.76,27.916l14.76-27.916c7.899-14.94,22.596-24.222,38.355-24.222c29.345,0,49.84,19.836,49.84,48.236
			C478.609,324.114,465.269,341.308,419.134,373.902z"/>
	</g>
</g>
</svg>